<svg width="40" height="40" viewBox="0 0 40 40" fill="none" xmlns="http://www.w3.org/2000/svg">
<rect width="40" height="40" rx="10" fill="white"/>
<path d="M20 32C26.6274 32 32 26.6274 32 20C32 13.3726 26.6274 8 20 8C13.3726 8 8 13.3726 8 20C8 26.6274 13.3726 32 20 32Z" stroke="black" stroke-width="1.4" stroke-linecap="round" stroke-linejoin="round"/>
<path d="M26.4178 15.9659C26.7499 16.4188 26.6757 17.0287 26.369 17.4992C23.8932 21.2981 22.0339 23.7703 20.8736 25.2139C20.1135 26.1596 18.76 26.2301 17.896 25.3784C16.8305 24.3281 15.3413 22.7675 13.7997 20.8568C13.392 20.3515 13.3076 19.6423 13.7062 19.1298C14.0182 18.7287 14.37 18.3807 14.694 18.0988C15.2933 17.5774 16.1713 17.694 16.7122 18.2757C18.2712 19.9521 19.2088 21.118 19.2088 21.118C19.2088 21.118 20.7682 18.8096 23.2728 15.2535C23.6829 14.6712 24.4217 14.3992 25.0383 14.7559C25.4925 15.0187 26.009 15.4084 26.4178 15.9659Z" stroke="black" stroke-width="1.4" stroke-linecap="round" stroke-linejoin="round"/>
<rect x="0.5" y="0.5" width="39" height="39" rx="9.5" stroke="#00E0AC" stroke-opacity="0.4"/>
</svg>
