<svg width="20" height="20" viewBox="0 0 20 20" fill="none" xmlns="http://www.w3.org/2000/svg">
<path d="M7.95398 1.58369C8.00331 1.48066 8.07445 1.39024 8.17564 1.33722C8.41585 1.21136 8.97608 1 10.0295 1C11.0829 1 11.6431 1.21136 11.8833 1.33722C11.9845 1.39024 12.0556 1.48066 12.105 1.58369C12.2487 1.88392 12.569 2.57562 12.8095 3.26347C13.4077 3.51062 13.9659 3.83514 14.4714 4.22457C15.188 4.08867 15.9483 4.02006 16.2805 3.99443C16.3944 3.98565 16.5083 4.00201 16.6048 4.06313C16.8339 4.20824 17.2971 4.58774 17.8238 5.5C18.3505 6.41226 18.4476 7.00309 18.4587 7.27407C18.4633 7.3882 18.4206 7.495 18.356 7.58924C18.1678 7.86409 17.7284 8.488 17.2525 9.04047C17.2938 9.35449 17.3152 9.67476 17.3152 10C17.3152 10.3253 17.2938 10.6456 17.2525 10.9596C17.7283 11.5121 18.1677 12.1359 18.3559 12.4108C18.4205 12.505 18.4632 12.6118 18.4586 12.7259C18.4474 12.9969 18.3504 13.5877 17.8237 14.5C17.297 15.4123 16.8338 15.7918 16.6047 15.9369C16.5082 15.998 16.3944 16.0144 16.2804 16.0056C15.9483 15.9799 15.188 15.9113 14.4714 15.7754C13.9659 16.1649 13.4077 16.4894 12.8095 16.7365C12.569 17.4244 12.2487 18.1161 12.105 18.4163C12.0556 18.5194 11.9845 18.6097 11.8833 18.6628C11.6431 18.7886 11.0829 19 10.0295 19C8.97608 19 8.41585 18.7886 8.17564 18.6628C8.07445 18.6097 8.00331 18.5194 7.95398 18.4163C7.8102 18.1161 7.48997 17.4244 7.24945 16.7365C6.65121 16.4894 6.09308 16.1649 5.5875 15.7755C4.87097 15.9113 4.11073 15.9799 3.77855 16.0056C3.66464 16.0144 3.55079 15.998 3.45427 15.9369C3.22517 15.7918 2.76201 15.4123 2.23532 14.5C1.70862 13.5877 1.61156 12.9969 1.60044 12.7259C1.59576 12.6118 1.63851 12.505 1.70307 12.4108C1.8913 12.136 2.33061 11.5122 2.80638 10.9597C2.76506 10.6456 2.74374 10.3253 2.74374 10C2.74374 9.67471 2.76506 9.3544 2.80637 9.04039C2.33057 8.48791 1.89121 7.86409 1.70297 7.58924C1.63842 7.495 1.59567 7.3882 1.60035 7.27407C1.61146 7.00309 1.70853 6.41226 2.23522 5.5C2.76192 4.58774 3.22507 4.20824 3.45418 4.06313C3.55069 4.00201 3.66455 3.98565 3.77845 3.99443C4.11064 4.02006 4.87093 4.08867 5.5875 4.22457C6.09304 3.83513 6.65121 3.51061 7.24945 3.26345C7.48997 2.5756 7.8102 1.88391 7.95398 1.58369Z" stroke="black" stroke-width="1.4" stroke-linecap="round" stroke-linejoin="round"/>
</svg>
