<svg width="20" height="20" viewBox="0 0 20 20" fill="none" xmlns="http://www.w3.org/2000/svg">
<path d="M1.10506 7.85715H18.8949" stroke="black" stroke-width="1.4" stroke-linecap="round" stroke-linejoin="round"/>
<path d="M4.42969 3.38373C3.94273 3.43077 3.52166 3.48026 3.16485 3.52782C2.22237 3.65345 1.50301 4.36267 1.36813 5.30385C1.19347 6.52267 1 8.4617 1 11.0714C1 13.6811 1.19347 15.6201 1.36813 16.8389C1.50301 17.7801 2.22237 18.4893 3.16484 18.6149C4.50644 18.7938 6.75653 19 10 19C13.2435 19 15.4936 18.7938 16.8352 18.6149C17.7776 18.4893 18.497 17.7801 18.6319 16.8389C18.8065 15.6201 19 13.6811 19 11.0714C19 8.4617 18.8065 6.52267 18.6319 5.30385C18.497 4.36267 17.7776 3.65345 16.8352 3.52782C16.4783 3.48026 16.0573 3.43077 15.5703 3.38373" stroke="black" stroke-width="1.4" stroke-linecap="round" stroke-linejoin="round"/>
<path d="M12.1429 3.17458C11.4838 3.15447 10.7699 3.14285 10 3.14285C9.23012 3.14285 8.51625 3.15447 7.85715 3.17458" stroke="black" stroke-width="1.4" stroke-linecap="round" stroke-linejoin="round"/>
<path d="M12.1485 3.68711C12.167 4.57853 12.7522 5.27041 13.6437 5.28413C13.7118 5.28516 13.7829 5.28571 13.8571 5.28571C13.9314 5.28571 14.0025 5.28516 14.0706 5.28413C14.9621 5.27041 15.5473 4.57853 15.5658 3.68711C15.5693 3.51772 15.5714 3.33583 15.5714 3.14286C15.5714 2.94989 15.5693 2.768 15.5658 2.5986C15.5473 1.70718 14.9621 1.01532 14.0706 1.0016C14.0025 1.00056 13.9314 1 13.8571 1C13.7829 1 13.7118 1.00056 13.6437 1.0016C12.7522 1.01532 12.167 1.70718 12.1485 2.5986C12.145 2.768 12.1429 2.94989 12.1429 3.14286C12.1429 3.33583 12.145 3.51772 12.1485 3.68711Z" stroke="black" stroke-width="1.4" stroke-linecap="round" stroke-linejoin="round"/>
<path d="M4.43419 3.68711C4.45274 4.57853 5.03787 5.27041 5.92939 5.28413C5.99749 5.28516 6.06859 5.28571 6.14286 5.28571C6.21713 5.28571 6.28823 5.28516 6.35633 5.28413C7.24785 5.27041 7.83297 4.57853 7.85153 3.68711C7.85505 3.51772 7.85715 3.33583 7.85715 3.14286C7.85715 2.94989 7.85505 2.768 7.85153 2.5986C7.83297 1.70718 7.24785 1.01532 6.35633 1.0016C6.28823 1.00056 6.21713 1 6.14286 1C6.06859 1 5.99749 1.00056 5.92939 1.0016C5.03787 1.01532 4.45274 1.70718 4.43419 2.5986C4.43067 2.768 4.42857 2.94989 4.42857 3.14286C4.42857 3.33583 4.43067 3.51772 4.43419 3.68711Z" stroke="black" stroke-width="1.4" stroke-linecap="round" stroke-linejoin="round"/>
</svg>
