<svg width="20" height="20" viewBox="0 0 20 20" fill="none" xmlns="http://www.w3.org/2000/svg">
<path d="M10 19C14.9706 19 19 14.9706 19 10C19 5.02944 14.9706 1 10 1C5.02944 1 1 5.02944 1 10C1 14.9706 5.02944 19 10 19Z" stroke="black" stroke-width="1.4" stroke-linecap="round" stroke-linejoin="round"/>
<path d="M14.8133 6.97443C15.0624 7.31411 15.0067 7.77153 14.7767 8.12446C12.9198 10.9736 11.5254 12.8277 10.6551 13.9105C10.0851 14.6198 9.06999 14.6726 8.42194 14.0338C7.62287 13.2461 6.50597 12.0756 5.34973 10.6426C5.04394 10.2637 4.98069 9.73177 5.27966 9.34739C5.51366 9.04653 5.77749 8.78557 6.02049 8.57411C6.46993 8.18308 7.12843 8.27056 7.53412 8.7068C8.70334 9.9641 9.40659 10.8385 9.40659 10.8385C9.40659 10.8385 10.5761 9.10721 12.4545 6.44017C12.7622 6.00341 13.3163 5.79946 13.7787 6.06697C14.1194 6.26407 14.5068 6.55636 14.8133 6.97443Z" stroke="black" stroke-width="1.4" stroke-linecap="round" stroke-linejoin="round"/>
</svg>
