<svg width="20" height="20" viewBox="0 0 20 20" fill="none" xmlns="http://www.w3.org/2000/svg">
<path d="M2.43801 6.51034C3.06335 12.6948 3.52027 15.778 3.75885 17.1602C3.86755 17.79 4.25674 18.3166 4.87355 18.4863C5.7448 18.7261 7.32523 19 9.9992 19C12.6732 19 14.2537 18.7261 15.1249 18.4863C15.7417 18.3166 16.1309 17.79 16.2396 17.1602C16.4782 15.7778 16.9352 12.6943 17.5606 6.50876" stroke="black" stroke-width="1.4" stroke-linecap="round" stroke-linejoin="round"/>
<path d="M8.54522 1C8.01113 1 7.53251 1.32947 7.3424 1.82802L6.97555 2.78989C5.38915 2.82001 4.19882 2.8702 3.38105 2.9151C2.49435 2.96379 1.65501 3.38451 1.30635 4.20033C1.20909 4.42791 1.11692 4.68399 1.04188 4.96496C0.833729 5.74425 1.42818 6.42608 2.23278 6.49401C3.52849 6.60338 5.90012 6.72763 9.98865 6.72763C14.0776 6.72763 16.4493 6.60338 17.7449 6.49396C18.5493 6.42603 19.1399 5.74823 18.9711 4.95969C18.9356 4.79409 18.8954 4.63714 18.8524 4.48962C18.5655 3.50482 17.6133 2.95903 16.5878 2.90742C15.7357 2.86452 14.5469 2.81819 13.0214 2.78979L12.6546 1.82802C12.4644 1.32947 11.9858 1 11.4517 1H8.54522Z" stroke="black" stroke-width="1.4" stroke-linecap="round" stroke-linejoin="round"/>
</svg>
