<svg width="20" height="18" viewBox="0 0 20 18" fill="none" xmlns="http://www.w3.org/2000/svg">
<path d="M10.1521 9.03568C10.0686 9.11555 9.93977 9.11563 9.85605 9.0359C9.26845 8.47625 6.99423 6.3079 4.13796 3.55459C3.6529 3.08698 2.97381 2.80953 2.39462 3.15375C2.18366 3.27912 1.95529 3.45232 1.72694 3.69152C1.40512 4.02865 1.2085 4.36579 1.08837 4.65187C0.886604 5.13235 1.05284 5.65642 1.35982 6.07754C3.50081 9.01467 6.55128 11.9186 8.39767 13.5697C9.31989 14.3945 10.6887 14.3946 11.611 13.57C13.4577 11.9187 16.508 9.01419 18.6422 6.0765C18.9475 5.65616 19.1127 5.1337 18.9121 4.65452C18.7921 4.36782 18.5952 4.02969 18.2724 3.69156C18.0443 3.45249 17.8161 3.27938 17.6053 3.15401C17.0259 2.80941 16.3464 3.08685 15.8612 3.55476C13.0065 6.30755 10.7384 8.47569 10.1521 9.03568Z" stroke="black" stroke-width="1.4" stroke-linecap="round" stroke-linejoin="round"/>
</svg>
