<svg width="20" height="20" viewBox="0 0 20 20" fill="none" xmlns="http://www.w3.org/2000/svg">
<path d="M12.4003 2.40091C12.3586 1.77204 12.0165 1.22484 11.3967 1.11049C11.0542 1.04731 10.5981 1 10 1C9.40193 1 8.9458 1.04731 8.60333 1.11049C7.98353 1.22484 7.6414 1.77204 7.59974 2.40091C7.54189 3.27527 7.471 4.83379 7.44194 7.44194C4.83379 7.471 3.27527 7.54189 2.40091 7.59974C1.77204 7.6414 1.22484 7.98353 1.11049 8.60333C1.04731 8.9458 1 9.40193 1 10C1 10.5981 1.04731 11.0542 1.11049 11.3967C1.22484 12.0165 1.77204 12.3586 2.40091 12.4002C3.27527 12.4581 4.83379 12.529 7.44194 12.5581C7.471 15.1662 7.54189 16.7247 7.59974 17.5991C7.6414 18.228 7.98353 18.7752 8.60333 18.8895C8.9458 18.9527 9.40193 19 10 19C10.5981 19 11.0542 18.9527 11.3967 18.8895C12.0165 18.7752 12.3586 18.228 12.4003 17.5991C12.4581 16.7247 12.529 15.1662 12.5581 12.5581C15.1662 12.529 16.7247 12.4581 17.5991 12.4003C18.228 12.3586 18.7752 12.0165 18.8895 11.3967C18.9527 11.0542 19 10.5981 19 10C19 9.40193 18.9527 8.9458 18.8895 8.60333C18.7752 7.98353 18.228 7.6414 17.5991 7.59979C16.7247 7.54189 15.1662 7.471 12.5581 7.44194C12.529 4.83379 12.4581 3.27527 12.4003 2.40091Z" stroke="black" stroke-width="1.4" stroke-linecap="round" stroke-linejoin="round"/>
</svg>
